<svg width="107" height="25" viewBox="0 0 107 25" fill="none" xmlns="http://www.w3.org/2000/svg">
<path opacity="0.7" d="M12.1312 24.0019C9.7325 24.0026 7.38742 23.2994 5.39257 21.9812C3.39773 20.663 1.84273 18.7889 0.924252 16.5961C0.00576898 14.4033 -0.234942 11.9902 0.232561 9.662C0.700065 7.3338 1.85478 5.19508 3.55068 3.51634C5.24657 1.8376 7.40745 0.694246 9.76004 0.230879C12.1126 -0.232489 14.5512 0.0049474 16.7675 0.913157C18.9837 1.82137 20.8779 3.35955 22.2107 5.33318C23.5434 7.30681 24.2548 9.62721 24.2548 12.0009C24.2514 15.1821 22.9731 18.232 20.7004 20.4818C18.4276 22.7316 15.3459 23.9975 12.1312 24.0019ZM12.1312 3.77963C10.4879 3.77887 8.88129 4.2604 7.51455 5.16332C6.14781 6.06623 5.08236 7.34996 4.45296 8.85214C3.82356 10.3543 3.65849 12.0075 3.97862 13.6025C4.29875 15.1975 5.0897 16.6628 6.25143 17.8129C7.41317 18.9631 8.89349 19.7465 10.5052 20.064C12.1169 20.3815 13.7875 20.2189 15.3058 19.5968C16.8241 18.9747 18.1219 17.9209 19.0349 16.5688C19.948 15.2168 20.4353 13.6271 20.4353 12.0009C20.433 9.82189 19.5574 7.73271 18.0007 6.19153C16.444 4.65035 14.3332 3.78298 12.1312 3.77963Z" fill="#29ABE2"/>
<path opacity="0.7" d="M23.5858 24.0019C21.1873 24.0016 18.8427 23.2976 16.8486 21.9787C14.8544 20.6599 13.3002 18.7855 12.3825 16.5926C11.4648 14.3997 11.2248 11.9868 11.6929 9.65889C12.161 7.33102 13.3161 5.19278 15.0122 3.51455C16.7083 1.83631 18.8692 0.693463 21.2216 0.230507C23.5741 -0.232449 26.0124 0.00528408 28.2284 0.913643C30.4443 1.822 32.3382 3.36019 33.6708 5.33371C35.0033 7.30722 35.7145 9.62743 35.7145 12.0009C35.7111 15.183 34.4321 18.2337 32.1583 20.4836C29.8844 22.7335 26.8014 23.9988 23.5858 24.0019ZM23.5858 3.77963C21.9427 3.77963 20.3364 4.2618 18.9702 5.16517C17.604 6.06854 16.5391 7.35253 15.9103 8.85478C15.2815 10.357 15.117 12.0101 15.4375 13.6048C15.7581 15.1996 16.5493 16.6645 17.7112 17.8143C18.8731 18.964 20.3534 19.7471 21.965 20.0643C23.5766 20.3815 25.2471 20.2187 26.7651 19.5964C28.2832 18.9742 29.5807 17.9204 30.4936 16.5684C31.4065 15.2165 31.8938 13.627 31.8938 12.0009C31.8914 9.82123 31.0153 7.73147 29.4578 6.19019C27.9003 4.6489 25.7885 3.78198 23.5858 3.77963Z" fill="#0A41C9"/>
<path opacity="0.7" d="M39.0725 24.0018H11.211C10.2177 24.0018 9.41663 23.1559 9.41663 22.112C9.41663 21.0682 10.2202 20.2222 11.211 20.2222H39.0725C40.0645 20.2222 40.8668 21.0682 40.8668 22.112C40.8668 23.1559 40.0645 24.0018 39.0725 24.0018Z" fill="#2BE0D6"/>
<path d="M47.301 12.5083C47.301 14.1863 46.0527 15.0145 44.1622 15.0145H40.8618L41.7103 7.07727H44.7236C46.2936 7.07727 47.0729 7.92832 47.0729 8.95947C47.0729 9.9234 46.4321 10.4003 45.904 10.6083C46.3119 10.735 46.6679 10.988 46.9194 11.3301C47.1709 11.6722 47.3047 12.0852 47.301 12.5083ZM45.5067 12.3269C45.5067 11.8196 45.1632 11.5443 44.3378 11.5443H43.0779L42.892 13.4253H44.1737C45.044 13.4253 45.5028 12.9496 45.5028 12.3256L45.5067 12.3269ZM43.3983 8.66522L43.2265 10.0819H44.2237C44.8992 10.0819 45.2196 9.70144 45.2196 9.22075C45.2196 8.85801 45.0132 8.66522 44.4634 8.66522H43.3983Z" fill="white"/>
<path d="M55.0681 7.07599L54.5297 12.1671C54.3234 14.0835 52.7995 15.1831 51.1256 15.1831C49.3966 15.1831 48.0328 14.015 48.2392 12.0986L48.7775 7.07599H50.6219L50.0836 12.1785C49.9554 13.2667 50.6565 13.4709 51.1833 13.4709C51.7792 13.4709 52.5816 13.1995 52.6841 12.11L53.2224 7.07599H55.0681Z" fill="white"/>
<path d="M61.9892 12.5083C61.9892 14.1863 60.7408 15.0145 58.8503 15.0145H55.5513L56.3998 7.07727H59.413C60.9831 7.07727 61.7623 7.92832 61.7623 8.95947C61.7623 9.9234 61.1215 10.4003 60.5934 10.6083C61.0011 10.7352 61.3568 10.9883 61.6081 11.3304C61.8594 11.6725 61.993 12.0854 61.9892 12.5083ZM60.1948 12.3269C60.1948 11.8196 59.8513 11.5443 59.0259 11.5443H57.7596L57.5763 13.4265H58.858C59.7334 13.4253 60.1948 12.9496 60.1948 12.3256V12.3269ZM58.0864 8.66522L57.9147 10.0819H58.9131C59.5886 10.0819 59.9103 9.70144 59.9103 9.22075C59.9103 8.85801 59.7039 8.66522 59.1541 8.66522H58.0864Z" fill="white"/>
<path d="M69.2219 12.5083C69.2219 14.1863 67.9722 15.0145 66.0817 15.0145H62.7814L63.6299 7.07727H66.6431C68.2132 7.07727 68.9925 7.92832 68.9925 8.95947C68.9925 9.9234 68.3516 10.4003 67.8236 10.6083C68.2316 10.7349 68.5877 10.9879 68.8395 11.33C69.0912 11.6721 69.2253 12.0851 69.2219 12.5083ZM67.4275 12.3269C67.4275 11.8196 67.084 11.5443 66.2586 11.5443H64.9987L64.809 13.4253H66.0907C66.9648 13.4253 67.4224 12.9496 67.4224 12.3256L67.4275 12.3269ZM65.3191 8.66522L65.1474 10.0819H66.1445C66.82 10.0819 67.1417 9.70144 67.1417 9.22075C67.1417 8.85801 66.9353 8.66522 66.3855 8.66522H65.3191Z" fill="white"/>
<path d="M75.0881 13.3352L74.9048 15.0132H70.0126L70.8598 7.07599H72.7054L72.0402 13.3352H75.0881Z" fill="white"/>
<path d="M81.2647 13.3352L81.0866 15.0132H75.9482L76.7954 7.07599H81.8261L81.6428 8.75399H78.4565L78.3194 10.1948H80.702L80.5188 11.8436H78.1246L77.9759 13.3403L81.2647 13.3352Z" fill="white"/>
<path d="M85.848 15.1261C83.6935 15.1261 82.0209 13.6523 82.0209 11.4479C82.0237 10.856 82.1444 10.2705 82.376 9.72477C82.6075 9.17903 82.9455 8.68378 83.3705 8.2673C83.7955 7.85083 84.2993 7.5213 84.8531 7.29753C85.4068 7.07376 85.9997 6.96013 86.5978 6.96313C87.6975 6.96313 88.6024 7.34363 89.233 7.93848L87.9846 9.12817C87.581 8.83846 87.0964 8.68022 86.5978 8.67537C85.2341 8.67537 83.928 9.67228 83.9165 11.4188C83.9165 12.5983 84.8214 13.4151 86.0954 13.4151C86.6777 13.4005 87.24 13.2018 87.7001 12.8482L88.6741 14.1964C87.8795 14.8318 86.89 15.1261 85.848 15.1261Z" fill="white"/>
<path d="M97.719 10.659C97.719 13.1881 95.6222 15.1261 93.1472 15.1261C90.9927 15.1261 89.3431 13.6523 89.3431 11.4479C89.3428 10.8572 89.4603 10.2723 89.6889 9.72667C89.9175 9.18104 90.2528 8.68544 90.6754 8.2683C91.098 7.85115 91.5997 7.52068 92.1516 7.29584C92.7036 7.07099 93.295 6.95619 93.8919 6.95803C96.0451 6.9631 97.719 8.45973 97.719 10.659ZM95.7965 10.8061C95.7965 9.55937 94.9595 8.67535 93.7791 8.67535C92.5653 8.67535 91.2708 9.60503 91.2708 11.3173C91.2708 12.5412 92.0834 13.4151 93.2639 13.4151C94.4443 13.4151 95.7939 12.4956 95.7939 10.8061H95.7965Z" fill="white"/>
<path d="M106.29 7.07599L105.439 15.0132H104.054L100.79 10.3876L100.277 15.0132H98.4291L99.2776 7.07599H100.687L103.93 11.7029L104.443 7.07599H106.29Z" fill="white"/>
</svg>
