<svg width="41" height="25" viewBox="0 0 41 25" fill="none" xmlns="http://www.w3.org/2000/svg">
<path opacity="0.7" d="M12.1312 24.0019C9.7325 24.0026 7.38742 23.2994 5.39257 21.9812C3.39773 20.663 1.84273 18.7889 0.924252 16.5961C0.00576898 14.4033 -0.234942 11.9902 0.232561 9.662C0.700065 7.3338 1.85478 5.19508 3.55068 3.51634C5.24657 1.8376 7.40745 0.694246 9.76004 0.230879C12.1126 -0.232489 14.5512 0.0049474 16.7675 0.913157C18.9837 1.82137 20.8779 3.35955 22.2107 5.33318C23.5434 7.30681 24.2548 9.62721 24.2548 12.0009C24.2514 15.1821 22.9731 18.232 20.7004 20.4818C18.4276 22.7316 15.3459 23.9975 12.1312 24.0019ZM12.1312 3.77963C10.4879 3.77887 8.88129 4.2604 7.51455 5.16332C6.14781 6.06623 5.08236 7.34996 4.45296 8.85214C3.82356 10.3543 3.65849 12.0075 3.97862 13.6025C4.29875 15.1975 5.0897 16.6628 6.25143 17.8129C7.41317 18.9631 8.89349 19.7465 10.5052 20.064C12.1169 20.3815 13.7875 20.2189 15.3058 19.5968C16.8241 18.9747 18.1219 17.9209 19.0349 16.5688C19.948 15.2168 20.4353 13.6271 20.4353 12.0009C20.433 9.82189 19.5574 7.73271 18.0007 6.19153C16.444 4.65035 14.3332 3.78298 12.1312 3.77963Z" fill="#29ABE2"/>
<path opacity="0.7" d="M23.5858 24.0019C21.1873 24.0016 18.8427 23.2976 16.8486 21.9787C14.8544 20.6599 13.3002 18.7855 12.3825 16.5926C11.4648 14.3997 11.2248 11.9868 11.6929 9.65889C12.161 7.33102 13.3161 5.19278 15.0122 3.51455C16.7083 1.83631 18.8692 0.693463 21.2216 0.230507C23.5741 -0.232449 26.0124 0.00528408 28.2284 0.913643C30.4443 1.822 32.3382 3.36019 33.6708 5.33371C35.0033 7.30722 35.7145 9.62743 35.7145 12.0009C35.7111 15.183 34.4321 18.2337 32.1583 20.4836C29.8844 22.7335 26.8014 23.9988 23.5858 24.0019ZM23.5858 3.77963C21.9427 3.77963 20.3364 4.2618 18.9702 5.16517C17.604 6.06854 16.5391 7.35253 15.9103 8.85478C15.2815 10.357 15.117 12.0101 15.4375 13.6048C15.7581 15.1996 16.5493 16.6645 17.7112 17.8143C18.8731 18.964 20.3534 19.7471 21.965 20.0643C23.5766 20.3815 25.2471 20.2187 26.7651 19.5964C28.2832 18.9742 29.5807 17.9204 30.4936 16.5684C31.4065 15.2165 31.8938 13.627 31.8938 12.0009C31.8914 9.82123 31.0153 7.73147 29.4578 6.19019C27.9003 4.6489 25.7885 3.78198 23.5858 3.77963Z" fill="#0A41C9"/>
<path opacity="0.7" d="M39.0725 24.0018H11.211C10.2177 24.0018 9.41663 23.1559 9.41663 22.112C9.41663 21.0682 10.2202 20.2222 11.211 20.2222H39.0725C40.0645 20.2222 40.8668 21.0682 40.8668 22.112C40.8668 23.1559 40.0645 24.0018 39.0725 24.0018Z" fill="#2BE0D6"/>
</svg>
