<svg width="48" height="48" viewBox="0 0 48 48" fill="none" xmlns="http://www.w3.org/2000/svg">
<path d="M23.9789 12.072C17.5991 12.072 12.4289 17.2422 12.4289 23.622C12.4289 30.0007 17.5991 35.172 23.9789 35.172C30.3577 35.172 35.5289 30.0007 35.5289 23.622C35.5289 17.2422 30.3577 12.072 23.9789 12.072V12.072Z" stroke="black" stroke-width="4" stroke-linejoin="round"/>
<path d="M8.292 39.7322L10.875 37.1345" stroke="black" stroke-width="4" stroke-linecap="round"/>
<path d="M37.5796 10.6105L39.7279 8.44852" stroke="black" stroke-width="4" stroke-linecap="round"/>
<path d="M24 5.77197V2.62197" stroke="black" stroke-width="4" stroke-linecap="round"/>
<path d="M2.99995 24.671H7.19995" stroke="black" stroke-width="4" stroke-linecap="round"/>
<path d="M9.79138 11.0398L7.19998 8.44839" stroke="black" stroke-width="4" stroke-linecap="round"/>
<path fill-rule="evenodd" clip-rule="evenodd" d="M23.979 30.9709C24.9442 30.9709 25.9 30.7808 26.7917 30.4115C27.6834 30.0421 28.4937 29.5007 29.1762 28.8182C29.8587 28.1357 30.4001 27.3254 30.7695 26.4337C31.1389 25.5419 31.329 24.5862 31.329 23.6209C31.329 22.6557 31.1389 21.7 30.7695 20.8082C30.4001 19.9165 29.8587 19.1062 29.1762 18.4237C28.4937 17.7412 27.6834 17.1998 26.7917 16.8304C25.9 16.4611 24.9442 16.2709 23.979 16.2709" fill="black"/>
<path d="M45 23.621H40.8" stroke="black" stroke-width="4" stroke-linecap="round"/>
<path d="M38.6538 39.7322L36.4982 37.5765" stroke="black" stroke-width="4" stroke-linecap="round"/>
<path d="M24 45.671V41.471" stroke="black" stroke-width="4" stroke-linecap="round"/>
</svg>
