<svg width="32" height="32" viewBox="0 0 32 32" fill="none" xmlns="http://www.w3.org/2000/svg">
<path d="M21.9091 20.3636V11.6364C21.9091 10.4314 20.9323 9.45454 19.7273 9.45454H13.1818C11.9769 9.45454 11 10.4314 11 11.6364V20.3636C11 21.5686 11.9769 22.5455 13.1818 22.5455H19.7273C20.9323 22.5455 21.9091 21.5686 21.9091 20.3636Z" stroke="#646464" stroke-miterlimit="10"/>
<path d="M21.9091 4V5.09091C21.9091 5.66956 21.6792 6.22452 21.2701 6.63369C20.8609 7.04286 20.3059 7.27273 19.7273 7.27273H13.1818C12.6032 7.27273 12.0482 7.04286 11.639 6.63369C11.2299 6.22452 11 5.66956 11 5.09091V4" stroke="#646464" stroke-miterlimit="10"/>
<path d="M11 28V26.9091C11 26.3304 11.2299 25.7755 11.639 25.3663C12.0482 24.9571 12.6032 24.7273 13.1818 24.7273H19.7273C20.3059 24.7273 20.8609 24.9571 21.2701 25.3663C21.6792 25.7755 21.9091 26.3304 21.9091 26.9091V28" stroke="#646464" stroke-miterlimit="10"/>
</svg>
