<svg width="32" height="32" viewBox="0 0 32 32" fill="none" xmlns="http://www.w3.org/2000/svg">
<path d="M12.2996 18.9696V19.8381H7.43106C7.41855 19.6273 7.4537 19.4164 7.53391 19.221C7.67088 18.8601 7.87225 18.5271 8.1282 18.2381C8.47627 17.8257 8.85858 17.4434 9.27106 17.0953C9.86965 16.6409 10.4142 16.1194 10.8939 15.541C11.1606 15.2191 11.3097 14.8161 11.3168 14.3981C11.3203 14.228 11.2887 14.0589 11.2238 13.9016C11.1589 13.7442 11.0621 13.602 10.9396 13.4839C10.6644 13.2362 10.3039 13.1051 9.93392 13.1181C9.74341 13.1102 9.55324 13.1405 9.37462 13.2073C9.19601 13.274 9.03256 13.3758 8.89392 13.5067C8.75014 13.658 8.64013 13.8382 8.57117 14.0352C8.50222 14.2322 8.47588 14.4416 8.49391 14.6496L7.5682 14.5581C7.5858 13.9559 7.84045 13.385 8.27677 12.9696C8.75152 12.5897 9.34973 12.3985 9.95677 12.4324C10.5716 12.3984 11.1751 12.6078 11.6368 13.0153C11.836 13.2002 11.9939 13.425 12.1002 13.6751C12.2066 13.9252 12.259 14.195 12.2539 14.4667C12.2503 14.7654 12.1882 15.0605 12.0711 15.3353C11.9208 15.6678 11.7161 15.973 11.4653 16.2381C11.0322 16.7015 10.5662 17.1331 10.0711 17.5296C9.70749 17.8227 9.36031 18.1355 9.03106 18.4667C8.88445 18.6091 8.7576 18.7706 8.65391 18.9467L12.2996 18.9696Z" fill="#646464"/>
<rect x="4.5" y="9.5" width="10.4286" height="13.8571" rx="1.5" stroke="#646464"/>
<path d="M19.9999 17.8824L20.9142 17.7567C20.9604 18.1847 21.1449 18.586 21.4399 18.8995C21.6887 19.128 22.0165 19.251 22.3542 19.2424C22.5543 19.2455 22.7528 19.2076 22.9376 19.1309C23.1223 19.0542 23.2894 18.9405 23.4285 18.7967C23.5778 18.6479 23.6938 18.4691 23.7687 18.272C23.8435 18.075 23.8756 17.8642 23.8628 17.6538C23.8703 17.4641 23.8387 17.2749 23.7699 17.0979C23.701 16.921 23.5965 16.7601 23.4628 16.6253C23.3247 16.4928 23.1616 16.3893 22.9831 16.3206C22.8045 16.2519 22.614 16.2195 22.4228 16.2253C22.206 16.2328 21.991 16.2673 21.7828 16.3281L21.8857 15.5281H22.0342C22.4023 15.5314 22.7635 15.4282 23.0742 15.231C23.2262 15.1288 23.3485 14.9884 23.4287 14.8238C23.509 14.6593 23.5444 14.4765 23.5314 14.2938C23.5338 14.1415 23.5057 13.9902 23.4487 13.8489C23.3918 13.7076 23.3072 13.5791 23.1999 13.471C22.9699 13.2692 22.6715 13.1629 22.3657 13.1738C22.0405 13.1663 21.7251 13.2851 21.4857 13.5053C21.2261 13.7749 21.0686 14.1264 21.0399 14.4995L20.1257 14.3395C20.2049 13.7972 20.4718 13.2997 20.8799 12.9338C21.2941 12.585 21.8247 12.4054 22.3657 12.431C22.763 12.4177 23.1569 12.5083 23.5085 12.6938C23.8313 12.8435 24.102 13.0863 24.2857 13.391C24.464 13.6753 24.559 14.0039 24.5599 14.3395C24.5607 14.6488 24.4692 14.9512 24.2971 15.2081C24.1085 15.4833 23.8475 15.7009 23.5428 15.8367C23.9432 15.9181 24.3028 16.1363 24.5599 16.4538C24.796 16.7877 24.9201 17.1878 24.9142 17.5967C24.9213 17.9031 24.8627 18.2074 24.7425 18.4893C24.6223 18.7711 24.4431 19.024 24.2171 19.231C23.9806 19.4575 23.7007 19.634 23.3944 19.7499C23.088 19.8657 22.7615 19.9186 22.4342 19.9053C21.8448 19.9212 21.2705 19.7176 20.8228 19.3338C20.3754 18.971 20.0815 18.4526 19.9999 17.8824Z" fill="#646464"/>
<rect x="17.0714" y="9.5" width="10.4286" height="13.8571" rx="1.5" stroke="#646464"/>
</svg>
