<svg width="32" height="32" viewBox="0 0 32 32" fill="none" xmlns="http://www.w3.org/2000/svg">
<path d="M26.722 10.4726H6.2761C5.57035 10.4726 4.99823 11.0447 4.99823 11.7505V20.6956C4.99823 21.4013 5.57035 21.9734 6.2761 21.9734H26.722C27.4278 21.9734 27.9999 21.4013 27.9999 20.6956V11.7505C27.9999 11.0447 27.4278 10.4726 26.722 10.4726Z" fill="#646464" fill-opacity="0.15"/>
<path d="M6.2761 21.6734C6.21155 21.6734 6.14769 21.667 6.08533 21.6546L6.0268 21.9489C5.86223 21.9161 5.70566 21.8513 5.56615 21.7581L5.73282 21.5086C5.67995 21.4733 5.63028 21.4327 5.58464 21.387C5.539 21.3414 5.49835 21.2917 5.46303 21.2388L5.21358 21.4055C5.12037 21.266 5.05551 21.1094 5.02278 20.9449L5.31701 20.8863C5.30461 20.824 5.29823 20.7601 5.29823 20.6956V20.1365H4.99823V19.0184H5.29823V17.9002H4.99823V16.7821H5.29823V15.6639H4.99823V14.5458H5.29823V13.4277H4.99823V12.3095H5.29823V11.7505C5.29823 11.6859 5.30461 11.6221 5.31701 11.5597L5.02278 11.5012C5.05551 11.3366 5.12037 11.18 5.21358 11.0405L5.46303 11.2072C5.49835 11.1543 5.539 11.1046 5.58464 11.059C5.63028 11.0134 5.67995 10.9727 5.73282 10.9374L5.56615 10.688C5.70566 10.5947 5.86223 10.5299 6.0268 10.4971L6.08533 10.7914C6.14769 10.779 6.21155 10.7726 6.2761 10.7726H6.84404V10.4726H7.97993V10.7726H9.11581V10.4726H10.2517V10.7726H11.3876V10.4726H12.5235V10.7726H13.6594V10.4726H14.7952V10.7726H15.9311V10.4726H17.067V10.7726H18.2029V10.4726H19.3388V10.7726H20.4747V10.4726H21.6105V10.7726H22.7464V10.4726H23.8823V10.7726H25.0182V10.4726H26.1541V10.7726H26.722C26.7866 10.7726 26.8504 10.779 26.9128 10.7914L26.9713 10.4971C27.1359 10.5299 27.2925 10.5947 27.432 10.688L27.2653 10.9374C27.3182 10.9727 27.3678 11.0134 27.4135 11.059C27.4591 11.1046 27.4998 11.1543 27.5351 11.2072L27.7845 11.0405C27.8778 11.18 27.9426 11.3366 27.9753 11.5012L27.6811 11.5597C27.6935 11.6221 27.6999 11.6859 27.6999 11.7505V12.3095H27.9999V13.4277H27.6999V14.5458H27.9999V15.6639H27.6999V16.7821H27.9999V17.9002H27.6999V19.0184H27.9999V20.1365H27.6999V20.6956C27.6999 20.7601 27.6935 20.824 27.6811 20.8863L27.9753 20.9449C27.9426 21.1094 27.8778 21.266 27.7845 21.4055L27.5351 21.2388C27.4998 21.2917 27.4591 21.3414 27.4135 21.387C27.3678 21.4327 27.3182 21.4733 27.2653 21.5086L27.432 21.7581C27.2925 21.8513 27.1359 21.9161 26.9713 21.9489L26.9128 21.6546C26.8504 21.667 26.7866 21.6734 26.722 21.6734H26.1541V21.9734H25.0182V21.6734H23.8823V21.9734H22.7464V21.6734H21.6105V21.9734H20.4747V21.6734H19.3388V21.9734H18.2029V21.6734H17.067V21.9734H15.9311V21.6734H14.7952V21.9734H13.6594V21.6734H12.5235V21.9734H11.3876V21.6734H10.2517V21.9734H9.11581V21.6734H7.97993V21.9734H6.84404V21.6734H6.2761Z" stroke="#646464" stroke-width="0.6" stroke-miterlimit="10" stroke-linejoin="bevel" stroke-dasharray="1.2 1.2"/>
<path d="M18.0308 26.4459C18.7086 26.4459 19.3587 26.1767 19.838 25.6974C20.3173 25.2181 20.5865 24.568 20.5865 23.8902V8.55574C20.5865 7.87792 20.3173 7.22785 19.838 6.74856C19.3587 6.26926 18.7086 6 18.0308 6" stroke="#646464" stroke-linecap="round" stroke-linejoin="round"/>
<path d="M23.1423 6C22.4645 6 21.8144 6.26926 21.3351 6.74856C20.8558 7.22785 20.5866 7.87792 20.5866 8.55574V23.8902C20.5866 24.568 20.8558 25.2181 21.3351 25.6974C21.8144 26.1767 22.4645 26.4459 23.1423 26.4459" stroke="#646464" stroke-linecap="round" stroke-linejoin="round"/>
<path d="M5.66123 9.51416H4.25558C4.11443 9.51416 4 9.62858 4 9.76973V11.1754C4 11.3165 4.11443 11.431 4.25558 11.431H5.66123C5.80238 11.431 5.91681 11.3165 5.91681 11.1754V9.76973C5.91681 9.62858 5.80238 9.51416 5.66123 9.51416Z" fill="#646464"/>
<path d="M5.66123 21.0151H4.25558C4.11443 21.0151 4 21.1295 4 21.2706V22.6763C4 22.8175 4.11443 22.9319 4.25558 22.9319H5.66123C5.80238 22.9319 5.91681 22.8175 5.91681 22.6763V21.2706C5.91681 21.1295 5.80238 21.0151 5.66123 21.0151Z" fill="#646464"/>
</svg>
