<svg width="32" height="32" viewBox="0 0 32 32" fill="none" xmlns="http://www.w3.org/2000/svg">
<path d="M10.3595 23.0639C11.2867 23.9946 12.3884 24.733 13.6016 25.2368C14.8148 25.7406 16.1155 26 17.4291 26C18.7427 26 20.0434 25.7406 21.2566 25.2368C22.4698 24.733 23.5715 23.9946 24.4987 23.0639C26.372 21.1904 27.4244 18.6495 27.4244 16C27.4244 13.3505 26.372 10.8096 24.4987 8.93605C23.5715 8.00544 22.4698 7.26703 21.2566 6.7632C20.0434 6.25936 18.7427 6 17.4291 6C16.1155 6 14.8148 6.25936 13.6016 6.7632C12.3884 7.26703 11.2867 8.00544 10.3595 8.93605C9.43034 9.86257 8.69342 10.9636 8.19119 12.1759C7.68896 13.3882 7.43131 14.6878 7.43305 16" stroke="#646464" stroke-linecap="round" stroke-linejoin="round"/>
<path d="M5 12.524L7.43314 16L10.909 13.5668" stroke="#646464" stroke-linecap="round" stroke-linejoin="round"/>
</svg>
