<svg width="32" height="32" viewBox="0 0 32 32" fill="none" xmlns="http://www.w3.org/2000/svg">
<path d="M21.4545 20.3636V11.6364C21.4545 10.4314 20.4777 9.45454 19.2727 9.45454H12.7273C11.5223 9.45454 10.5454 10.4314 10.5454 11.6364V20.3636C10.5454 21.5686 11.5223 22.5455 12.7273 22.5455H19.2727C20.4777 22.5455 21.4545 21.5686 21.4545 20.3636Z" stroke="#646464" stroke-miterlimit="10"/>
<path d="M21.4545 4V5.09091C21.4545 5.66956 21.2246 6.22452 20.8155 6.63369C20.4063 7.04286 19.8513 7.27273 19.2727 7.27273H12.7272C12.1486 7.27273 11.5936 7.04286 11.1844 6.63369C10.7753 6.22452 10.5454 5.66956 10.5454 5.09091V4" stroke="#646464" stroke-opacity="0.3" stroke-miterlimit="10"/>
<path d="M10.5454 28V26.9091C10.5454 26.3304 10.7753 25.7755 11.1844 25.3663C11.5936 24.9571 12.1486 24.7273 12.7272 24.7273H19.2727C19.8513 24.7273 20.4063 24.9571 20.8155 25.3663C21.2246 25.7755 21.4545 26.3304 21.4545 26.9091V28" stroke="#646464" stroke-opacity="0.3" stroke-miterlimit="10"/>
</svg>
