<svg width="32" height="32" viewBox="0 0 32 32" fill="none" xmlns="http://www.w3.org/2000/svg">
<path d="M22 20.8V11.2C22 9.87452 20.9255 8.8 19.6 8.8H12.4C11.0745 8.8 10 9.87452 10 11.2V20.8C10 22.1255 11.0745 23.2 12.4 23.2H19.6C20.9255 23.2 22 22.1255 22 20.8Z" stroke="#646464" stroke-miterlimit="10"/>
<path d="M4 8.8H5.2C5.83652 8.8 6.44697 9.05286 6.89706 9.50295C7.34714 9.95303 7.6 10.5635 7.6 11.2V20.8C7.6 21.4365 7.34714 22.047 6.89706 22.4971C6.44697 22.9471 5.83652 23.2 5.2 23.2H4" stroke="#646464" stroke-miterlimit="10"/>
<path d="M28 23.2H26.8C26.1635 23.2 25.5531 22.9471 25.103 22.4971C24.6529 22.047 24.4 21.4365 24.4 20.8V11.2C24.4 10.5635 24.6529 9.95303 25.103 9.50295C25.5531 9.05286 26.1635 8.8 26.8 8.8H28" stroke="#646464" stroke-miterlimit="10"/>
</svg>
