<svg width="32" height="32" viewBox="0 0 32 32" fill="none" xmlns="http://www.w3.org/2000/svg">
<path d="M15.0001 20V12C15.0001 10.8955 14.1046 10 13.0001 10H7.00006C5.89549 10 5.00006 10.8955 5.00006 12V20C5.00006 21.1046 5.89549 22 7.00006 22H13.0001C14.1046 22 15.0001 21.1046 15.0001 20Z" stroke="#646464" stroke-miterlimit="10"/>
<path d="M15 5V6C15 6.53043 14.7893 7.03914 14.4142 7.41421C14.0391 7.78929 13.5304 8 13 8H7C6.46957 8 5.96086 7.78929 5.58579 7.41421C5.21071 7.03914 5 6.53043 5 6V5" stroke="#646464" stroke-miterlimit="10"/>
<path d="M5 27V26C5 25.4696 5.21071 24.9609 5.58579 24.5858C5.96086 24.2107 6.46957 24 7 24H13C13.5304 24 14.0391 24.2107 14.4142 24.5858C14.7893 24.9609 15 25.4696 15 26V27" stroke="#646464" stroke-miterlimit="10"/>
<path d="M26.9167 20V12C26.9167 10.8955 26.0213 10 24.9167 10H18.9167C17.8121 10 16.9167 10.8955 16.9167 12V20C16.9167 21.1046 17.8121 22 18.9167 22H24.9167C26.0213 22 26.9167 21.1046 26.9167 20Z" stroke="#646464" stroke-miterlimit="10"/>
<path d="M26.9167 5V6C26.9167 6.53043 26.706 7.03914 26.3309 7.41421C25.9558 7.78929 25.4471 8 24.9167 8H18.9167C18.3863 8 17.8775 7.78929 17.5025 7.41421C17.1274 7.03914 16.9167 6.53043 16.9167 6V5" stroke="#646464" stroke-miterlimit="10"/>
<path d="M16.9166 27V26C16.9166 25.4696 17.1273 24.9609 17.5024 24.5858C17.8775 24.2107 18.3862 24 18.9166 24H24.9166C25.4471 24 25.9558 24.2107 26.3308 24.5858C26.7059 24.9609 26.9166 25.4696 26.9166 26V27" stroke="#646464" stroke-miterlimit="10"/>
</svg>
