<svg width="32" height="32" viewBox="0 0 32 32" fill="none" xmlns="http://www.w3.org/2000/svg">
<path d="M16.3892 6C16.6952 5.99999 16.9887 6.12083 17.206 6.33621C17.4232 6.5516 17.5466 6.84409 17.5492 7.15V14.46C17.5492 14.5608 17.5893 14.6574 17.6605 14.7287C17.7318 14.8 17.8285 14.84 17.9292 14.84C18.03 14.84 18.1267 14.8 18.1979 14.7287C18.2692 14.6574 18.3092 14.5608 18.3092 14.46V7.92C18.336 7.63222 18.4693 7.36481 18.683 7.17015C18.8966 6.97548 19.1752 6.86759 19.4642 6.86759C19.7533 6.86759 20.0319 6.97548 20.2455 7.17015C20.4592 7.36481 20.5924 7.63222 20.6192 7.92V15.23C20.6102 15.2858 20.6134 15.3428 20.6286 15.3972C20.6438 15.4516 20.6707 15.502 20.7073 15.5451C20.7439 15.5881 20.7894 15.6226 20.8407 15.6463C20.8919 15.67 20.9478 15.6822 21.0042 15.6822C21.0607 15.6822 21.1165 15.67 21.1678 15.6463C21.2191 15.6226 21.2646 15.5881 21.3012 15.5451C21.3378 15.502 21.3646 15.4516 21.3798 15.3972C21.395 15.3428 21.3982 15.2858 21.3892 15.23V10.23C21.416 9.94222 21.5493 9.67481 21.763 9.48015C21.9766 9.28548 22.2552 9.17759 22.5442 9.17759C22.8333 9.17759 23.1119 9.28548 23.3255 9.48015C23.5392 9.67481 23.6724 9.94222 23.6992 10.23V20.62C23.6992 21.85 23.2192 26 17.8492 26C14.5992 26 12.8492 24.73 11.8492 23.1L8.21924 17.67C8.0077 17.3552 7.92698 16.9704 7.99417 16.5971C8.06137 16.2238 8.27119 15.8913 8.57924 15.67C8.79437 15.5436 9.03974 15.478 9.28924 15.48C9.55208 15.4838 9.80977 15.5536 10.0387 15.6829C10.2675 15.8121 10.4603 15.9968 10.5992 16.22L12.1592 18.31V8.69C12.186 8.40222 12.3193 8.13481 12.533 7.94015C12.7466 7.74548 13.0252 7.63759 13.3142 7.63759C13.6033 7.63759 13.8819 7.74548 14.0955 7.94015C14.3092 8.13481 14.4424 8.40222 14.4692 8.69V14.46C14.4602 14.5158 14.4634 14.5728 14.4786 14.6272C14.4938 14.6816 14.5207 14.732 14.5573 14.7751C14.5939 14.8181 14.6394 14.8526 14.6907 14.8763C14.7419 14.9 14.7978 14.9122 14.8542 14.9122C14.9107 14.9122 14.9665 14.9 15.0178 14.8763C15.0691 14.8526 15.1146 14.8181 15.1512 14.7751C15.1878 14.732 15.2146 14.6816 15.2298 14.6272C15.245 14.5728 15.2483 14.5158 15.2392 14.46V7.15C15.2392 6.845 15.3604 6.55249 15.5761 6.33683C15.7917 6.12116 16.0842 6 16.3892 6ZM16.3892 5C15.8867 5.00253 15.4007 5.17937 15.0141 5.50035C14.6274 5.82133 14.3642 6.26654 14.2692 6.76C13.9581 6.60832 13.6153 6.5329 13.2692 6.54C12.706 6.55048 12.1693 6.78162 11.7747 7.18369C11.3802 7.58576 11.1591 8.12665 11.1592 8.69V15.27C10.9221 15.0096 10.6334 14.8013 10.3115 14.6584C9.98957 14.5155 9.64145 14.4411 9.28924 14.44C8.85586 14.4387 8.43044 14.5563 8.05924 14.78C7.80159 14.9491 7.58038 15.168 7.40864 15.4239C7.2369 15.6798 7.1181 15.9675 7.05924 16.27C6.98702 16.6005 6.98077 16.942 7.04083 17.2749C7.10089 17.6078 7.22609 17.9256 7.40924 18.21L10.9592 23.65C12.4492 25.9 14.6592 27 17.8492 27C22.9092 27 24.6592 23.56 24.6592 20.62V10.23C24.6592 9.65978 24.4327 9.11292 24.0295 8.70972C23.6263 8.30652 23.0795 8.08 22.5092 8.08C22.1884 8.07869 21.8711 8.14692 21.5792 8.28V7.92C21.5792 7.34978 21.3527 6.80292 20.9495 6.39972C20.5463 5.99652 19.9995 5.77 19.4292 5.77C19.0054 5.76776 18.5907 5.89321 18.2392 6.13C18.0594 5.79398 17.7931 5.51207 17.4679 5.31342C17.1427 5.11476 16.7703 5.00656 16.3892 5Z" fill="#646464"/>
</svg>
