<svg width="32" height="32" viewBox="0 0 32 32" fill="none" xmlns="http://www.w3.org/2000/svg">
<path d="M24.8709 18.9696V19.8381H20.0023C19.9898 19.6273 20.025 19.4164 20.1052 19.221C20.2422 18.8601 20.4435 18.5271 20.6995 18.2381C21.0476 17.8257 21.4299 17.4433 21.8423 17.0953C22.4409 16.6409 22.9855 16.1194 23.4652 15.541C23.7319 15.2191 23.881 14.8161 23.8881 14.3981C23.8916 14.228 23.86 14.0589 23.7951 13.9016C23.7302 13.7442 23.6334 13.602 23.5109 13.4839C23.2357 13.2362 22.8752 13.1051 22.5052 13.1181C22.3147 13.1102 22.1245 13.1405 21.9459 13.2073C21.7673 13.274 21.6039 13.3758 21.4652 13.5067C21.3214 13.658 21.2114 13.8382 21.1425 14.0352C21.0735 14.2322 21.0472 14.4416 21.0652 14.6496L20.1395 14.5581C20.1571 13.9559 20.4117 13.385 20.8481 12.9696C21.3228 12.5897 21.921 12.3985 22.5281 12.4324C23.1429 12.3984 23.7464 12.6078 24.2081 13.0153C24.4073 13.2002 24.5652 13.425 24.6715 13.6751C24.7779 13.9252 24.8302 14.195 24.8252 14.4667C24.8216 14.7654 24.7595 15.0605 24.6423 15.3353C24.4921 15.6678 24.2874 15.973 24.0366 16.2381C23.6035 16.7015 23.1375 17.1331 22.6423 17.5296C22.2788 17.8227 21.9316 18.1355 21.6023 18.4667C21.4557 18.6091 21.3289 18.7706 21.2252 18.9467L24.8709 18.9696Z" fill="#646464"/>
<rect x="17.0713" y="9.5" width="10.4286" height="13.8571" rx="1.5" stroke="#646464"/>
<path d="M10.1485 19.7657H9.24561V14.0514C8.98795 14.2968 8.69988 14.508 8.38847 14.68C8.08283 14.8641 7.76159 15.0209 7.42847 15.1486V14.2686C7.90916 14.0479 8.35563 13.7592 8.75418 13.4114C9.08258 13.1363 9.35762 12.8031 9.56561 12.4286H10.1485V19.7657Z" fill="#646464"/>
<rect x="4.5" y="9.5" width="10.4286" height="13.8571" rx="1.5" stroke="#646464"/>
</svg>
