<svg width="32" height="32" viewBox="0 0 32 32" fill="none" xmlns="http://www.w3.org/2000/svg">
<path d="M16 9.45456C17.2946 9.45456 18.5601 9.83844 19.6365 10.5577C20.7129 11.2769 21.5518 12.2991 22.0472 13.4952C22.5426 14.6912 22.6723 16.0073 22.4197 17.277C22.1671 18.5467 21.5437 19.7129 20.6283 20.6283C19.713 21.5437 18.5467 22.1671 17.277 22.4197C16.0073 22.6723 14.6912 22.5426 13.4952 22.0472C12.2992 21.5518 11.2769 20.7129 10.5577 19.6365C9.83844 18.5601 9.45456 17.2946 9.45456 16C9.45456 14.264 10.1442 12.5992 11.3717 11.3717C12.5992 10.1442 14.2641 9.45456 16 9.45456ZM16 8.36365C14.4897 8.36365 13.0133 8.81151 11.7575 9.65061C10.5017 10.4897 9.52291 11.6823 8.94493 13.0777C8.36696 14.4731 8.21573 16.0085 8.51038 17.4898C8.80503 18.9711 9.53233 20.3318 10.6003 21.3997C11.6683 22.4677 13.0289 23.195 14.5102 23.4896C15.9915 23.7843 17.527 23.6331 18.9223 23.0551C20.3177 22.4771 21.5103 21.4983 22.3494 20.2425C23.1885 18.9868 23.6364 17.5103 23.6364 16C23.6364 13.9747 22.8318 12.0324 21.3997 10.6003C19.9676 9.16819 18.0253 8.36365 16 8.36365Z" fill="#646464"/>
<path d="M16 6.18182V4" stroke="#646464" stroke-linecap="round" stroke-linejoin="round"/>
<path d="M9.06179 9.06185L7.5127 7.51276" stroke="#646464" stroke-linecap="round" stroke-linejoin="round"/>
<path d="M6.18182 16H4" stroke="#646464" stroke-linecap="round" stroke-linejoin="round"/>
<path d="M9.06179 22.9382L7.5127 24.4873" stroke="#646464" stroke-linecap="round" stroke-linejoin="round"/>
<path d="M16 25.8182V28" stroke="#646464" stroke-linecap="round" stroke-linejoin="round"/>
<path d="M22.9382 22.9382L24.4873 24.4873" stroke="#646464" stroke-linecap="round" stroke-linejoin="round"/>
<path d="M25.8182 16H28.0001" stroke="#646464" stroke-linecap="round" stroke-linejoin="round"/>
<path d="M22.9382 9.06185L24.4873 7.51276" stroke="#646464" stroke-linecap="round" stroke-linejoin="round"/>
<path d="M12.531 19.4691C12.986 19.9256 13.5267 20.2878 14.122 20.5349C14.7173 20.7821 15.3555 20.9093 16.0001 20.9093C16.6446 20.9093 17.2828 20.7821 17.8781 20.5349C18.4734 20.2878 19.0141 19.9256 19.4691 19.4691L12.531 12.5309C12.0745 12.9859 11.7123 13.5266 11.4651 14.1219C11.218 14.7172 11.0908 15.3554 11.0908 16C11.0908 16.6445 11.218 17.2828 11.4651 17.8781C11.7123 18.4734 12.0745 19.014 12.531 19.4691Z" fill="#646464" fill-opacity="0.3"/>
</svg>
