<svg width="32" height="32" viewBox="0 0 32 32" fill="none" xmlns="http://www.w3.org/2000/svg">
<path d="M25.8182 7.25729C26.1075 7.25729 26.385 7.37223 26.5896 7.57681C26.7942 7.7814 26.9091 8.05887 26.9091 8.3482V23.9918C26.9091 24.2812 26.7942 24.5586 26.5896 24.7632C26.385 24.9678 26.1075 25.0827 25.8182 25.0827H6.18182C5.89249 25.0827 5.61501 24.9678 5.41043 24.7632C5.20584 24.5586 5.09091 24.2812 5.09091 23.9918V8.3482C5.09091 8.05887 5.20584 7.7814 5.41043 7.57681C5.61501 7.37223 5.89249 7.25729 6.18182 7.25729H25.8182ZM25.8182 6.16638H6.18182C5.60316 6.16638 5.04821 6.39625 4.63904 6.80542C4.22987 7.21459 4 7.76955 4 8.3482V23.9918C4 24.5705 4.22987 25.1254 4.63904 25.5346C5.04821 25.9438 5.60316 26.1737 6.18182 26.1737H25.8182C26.3968 26.1737 26.9518 25.9438 27.361 25.5346C27.7701 25.1254 28 24.5705 28 23.9918V8.3482C28 7.76955 27.7701 7.21459 27.361 6.80542C26.9518 6.39625 26.3968 6.16638 25.8182 6.16638Z" fill="#B9B9B9"/>
<path d="M10.7202 10.7264H23.8111" stroke="#B9B9B9" stroke-miterlimit="10" stroke-linecap="round"/>
<path d="M8.2108 11.2282C8.48795 11.2282 8.71262 11.0035 8.71262 10.7264C8.71262 10.4492 8.48795 10.2245 8.2108 10.2245C7.93366 10.2245 7.70898 10.4492 7.70898 10.7264C7.70898 11.0035 7.93366 11.2282 8.2108 11.2282Z" fill="#B9B9B9"/>
<path d="M10.7202 14.3482H23.8111" stroke="#B9B9B9" stroke-miterlimit="10" stroke-linecap="round"/>
<path d="M8.2108 14.8501C8.48795 14.8501 8.71262 14.6254 8.71262 14.3483C8.71262 14.0711 8.48795 13.8464 8.2108 13.8464C7.93366 13.8464 7.70898 14.0711 7.70898 14.3483C7.70898 14.6254 7.93366 14.8501 8.2108 14.8501Z" fill="#B9B9B9"/>
<path d="M10.7202 17.9809H19.4474" stroke="#B9B9B9" stroke-miterlimit="10" stroke-linecap="round"/>
<path d="M8.2108 18.4827C8.48795 18.4827 8.71262 18.2581 8.71262 17.9809C8.71262 17.7038 8.48795 17.4791 8.2108 17.4791C7.93366 17.4791 7.70898 17.7038 7.70898 17.9809C7.70898 18.2581 7.93366 18.4827 8.2108 18.4827Z" fill="#B9B9B9"/>
</svg>
