<svg width="32" height="32" viewBox="0 0 32 32" fill="none" xmlns="http://www.w3.org/2000/svg">
<path d="M25.9583 11.7916H6C5.46203 11.8132 4.9533 12.0421 4.58045 12.4305C4.20759 12.8189 3.99957 13.3366 4 13.875V14.9166H27.9583V13.875C27.9588 13.3366 27.7507 12.8189 27.3779 12.4305C27.005 12.0421 26.4963 11.8132 25.9583 11.7916Z" fill="#646464" fill-opacity="0.3"/>
<mask id="path-2-inside-1_44_598" fill="white">
<path d="M24.9583 22.2083H26C26.538 22.1868 27.0467 21.9578 27.4196 21.5694C27.7924 21.181 28.0004 20.6634 28 20.125V13.875C28.0004 13.3366 27.7924 12.8189 27.4196 12.4305C27.0467 12.0421 26.538 11.8132 26 11.7916H6C5.46203 11.8132 4.9533 12.0421 4.58045 12.4305C4.20759 12.8189 3.99957 13.3366 4 13.875V20.125C3.99957 20.6634 4.20759 21.181 4.58045 21.5694C4.9533 21.9578 5.46203 22.1868 6 22.2083H7.04167"/>
</mask>
<path d="M26 22.2083V23.2083C26.0133 23.2083 26.0267 23.208 26.04 23.2075L26 22.2083ZM28 20.125H27L27 20.1258L28 20.125ZM28 13.875L27 13.8742V13.875H28ZM26 11.7916L26.04 10.7924C26.0267 10.7919 26.0133 10.7916 26 10.7916V11.7916ZM6 11.7916V10.7916C5.98666 10.7916 5.97333 10.7919 5.96 10.7924L6 11.7916ZM4 13.875H5L5 13.8742L4 13.875ZM4 20.125L5 20.1258V20.125H4ZM6 22.2083L5.96 23.2075C5.97333 23.208 5.98666 23.2083 6 23.2083V22.2083ZM24.9583 23.2083H26V21.2083H24.9583V23.2083ZM26.04 23.2075C26.8362 23.1756 27.5891 22.8368 28.1409 22.2619L26.6982 20.8769C26.5043 21.0788 26.2397 21.1979 25.96 21.2091L26.04 23.2075ZM28.1409 22.2619C28.6928 21.6871 29.0006 20.921 29 20.1242L27 20.1258C27.0002 20.4057 26.8921 20.6749 26.6982 20.8769L28.1409 22.2619ZM29 20.125V13.875H27V20.125H29ZM29 13.8758C29.0006 13.0789 28.6928 12.3128 28.1409 11.738L26.6982 13.123C26.8921 13.325 27.0002 13.5942 27 13.8742L29 13.8758ZM28.1409 11.738C27.5891 11.1632 26.8362 10.8243 26.04 10.7924L25.96 12.7908C26.2397 12.802 26.5043 12.9211 26.6982 13.123L28.1409 11.738ZM26 10.7916H6V12.7916H26V10.7916ZM5.96 10.7924C5.16381 10.8243 4.41088 11.1632 3.85906 11.738L5.30183 13.123C5.49572 12.9211 5.76026 12.802 6.04 12.7908L5.96 10.7924ZM3.85906 11.738C3.30724 12.3128 2.99936 13.0789 3 13.8758L5 13.8742C4.99978 13.5942 5.10795 13.325 5.30183 13.123L3.85906 11.738ZM3 13.875V20.125H5V13.875H3ZM3 20.1242C2.99936 20.921 3.30724 21.6871 3.85906 22.2619L5.30183 20.8769C5.10795 20.6749 4.99978 20.4057 5 20.1258L3 20.1242ZM3.85906 22.2619C4.41088 22.8367 5.16381 23.1756 5.96 23.2075L6.04 21.2091C5.76026 21.1979 5.49572 21.0788 5.30183 20.8769L3.85906 22.2619ZM6 23.2083H7.04167V21.2083H6V23.2083Z" fill="#646464" mask="url(#path-2-inside-1_44_598)"/>
<path d="M23.271 18.9375C23.5473 18.9375 23.8123 19.0473 24.0076 19.2426C24.203 19.438 24.3127 19.7029 24.3127 19.9792V24.1459C24.3127 24.4221 24.203 24.6871 24.0076 24.8824C23.8123 25.0778 23.5473 25.1875 23.271 25.1875H8.6877C8.41144 25.1875 8.14648 25.0778 7.95113 24.8824C7.75578 24.6871 7.64604 24.4221 7.64604 24.1459V19.9792C7.64604 19.7029 7.75578 19.438 7.95113 19.2426C8.14648 19.0473 8.41144 18.9375 8.6877 18.9375H23.271ZM23.271 17.8959H8.6877C8.13517 17.8959 7.60526 18.1154 7.21456 18.5061C6.82386 18.8968 6.60437 19.4267 6.60437 19.9792V24.1459C6.60437 24.6984 6.82386 25.2283 7.21456 25.619C7.60526 26.0097 8.13517 26.2292 8.6877 26.2292H23.271C23.8236 26.2292 24.3535 26.0097 24.7442 25.619C25.1349 25.2283 25.3544 24.6984 25.3544 24.1459V19.9792C25.3544 19.4267 25.1349 18.8968 24.7442 18.5061C24.3535 18.1154 23.8236 17.8959 23.271 17.8959Z" fill="#646464"/>
<path d="M20.6669 7.54169H11.2919" stroke="#646464" stroke-linecap="round" stroke-linejoin="round"/>
<path d="M20.6669 9.44788H11.2919" stroke="#646464" stroke-linecap="round" stroke-linejoin="round"/>
<path d="M13.3749 20.7918H9.20819" stroke="#646464" stroke-linecap="round" stroke-linejoin="round"/>
<path d="M23.2708 11.7917V6.04167C23.2708 5.7654 23.1611 5.50045 22.9657 5.3051C22.7704 5.10975 22.5054 5 22.2292 5H9.72917C9.4529 5 9.18795 5.10975 8.9926 5.3051C8.79725 5.50045 8.6875 5.7654 8.6875 6.04167V11.7917" stroke="#646464" stroke-linejoin="round"/>
</svg>
