<svg width="32" height="32" viewBox="0 0 32 32" fill="none" xmlns="http://www.w3.org/2000/svg">
<path d="M13.7725 5H6.375C5.61561 5 5 5.61561 5 6.375V13.7725C5 14.5319 5.61561 15.1475 6.375 15.1475H13.7725C14.5319 15.1475 15.1475 14.5319 15.1475 13.7725V6.375C15.1475 5.61561 14.5319 5 13.7725 5Z" fill="white"/>
<path d="M25.6249 5H18.2274C17.468 5 16.8524 5.61561 16.8524 6.375V13.7725C16.8524 14.5319 17.468 15.1475 18.2274 15.1475H25.6249C26.3843 15.1475 26.9999 14.5319 26.9999 13.7725V6.375C26.9999 5.61561 26.3843 5 25.6249 5Z" fill="white"/>
<path d="M15.1476 25.625V18.2275C15.1476 17.4681 14.532 16.8525 13.7726 16.8525H6.37508C5.61569 16.8525 5.00008 17.4681 5.00008 18.2275V25.625C5.00008 26.3844 5.61569 27 6.37508 27H13.7726C14.532 27 15.1476 26.3844 15.1476 25.625Z" fill="white"/>
<path d="M27 25.625V18.2275C27 17.4681 26.3844 16.8525 25.625 16.8525H18.2275C17.4681 16.8525 16.8525 17.4681 16.8525 18.2275V25.625C16.8525 26.3844 17.4681 27 18.2275 27H25.625C26.3844 27 27 26.3844 27 25.625Z" fill="white"/>
</svg>
