<svg width="32" height="32" viewBox="0 0 32 32" fill="none" xmlns="http://www.w3.org/2000/svg">
<path opacity="0.3" d="M6 6C5.48645 5.99936 4.99233 6.19629 4.62 6.55C4.24767 6.90371 4.02568 7.38709 4 7.9V24.1C4.02568 24.6129 4.24767 25.0963 4.62 25.45C4.99233 25.8037 5.48645 26.0006 6 26H13.65V6H6Z" fill="white"/>
<path d="M26 7C26.2652 7 26.5196 7.10536 26.7071 7.29289C26.8946 7.48043 27 7.73478 27 8V24C27 24.2652 26.8946 24.5196 26.7071 24.7071C26.5196 24.8946 26.2652 25 26 25H6C5.73478 25 5.48043 24.8946 5.29289 24.7071C5.10536 24.5196 5 24.2652 5 24V8C5 7.73478 5.10536 7.48043 5.29289 7.29289C5.48043 7.10536 5.73478 7 6 7H26ZM26 6H6C5.46957 6 4.96086 6.21071 4.58579 6.58579C4.21071 6.96086 4 7.46957 4 8V24C4 24.5304 4.21071 25.0391 4.58579 25.4142C4.96086 25.7893 5.46957 26 6 26H26C26.5304 26 27.0391 25.7893 27.4142 25.4142C27.7893 25.0391 28 24.5304 28 24V8C28 7.46957 27.7893 6.96086 27.4142 6.58579C27.0391 6.21071 26.5304 6 26 6Z" fill="white"/>
<path d="M6.28003 9.45996H12.28" stroke="white" stroke-miterlimit="10" stroke-linecap="round"/>
<path d="M6.28003 11.91H12.28" stroke="white" stroke-miterlimit="10" stroke-linecap="round"/>
<path d="M6.28003 14.36H12.28" stroke="white" stroke-miterlimit="10" stroke-linecap="round"/>
</svg>
