<svg width="32" height="32" viewBox="0 0 32 32" fill="none" xmlns="http://www.w3.org/2000/svg">
<path d="M17.8894 5L6.82554 16.0017C6.24681 16.5797 5.78771 17.2662 5.47447 18.0218C5.16123 18.7775 5 19.5874 5 20.4054C5 21.2234 5.16123 22.0334 5.47447 22.789C5.78771 23.5446 6.24681 24.2311 6.82554 24.8092C7.40362 25.3879 8.0901 25.847 8.84573 26.1603C9.60136 26.4735 10.4113 26.6347 11.2293 26.6347C12.0473 26.6347 12.8573 26.4735 13.6129 26.1603C14.3685 25.847 15.055 25.3879 15.6331 24.8092L26.6347 13.8075C27.509 12.9322 28 11.7457 28 10.5086C28 9.2715 27.509 8.08498 26.6347 7.20967C25.7594 6.33544 24.5729 5.8444 23.3358 5.8444C22.0987 5.8444 20.9122 6.33544 20.0369 7.20967L14.7772 12.4382L9.28418 17.9468C8.99482 18.2358 8.76527 18.5791 8.60865 18.9569C8.45203 19.3347 8.37141 19.7397 8.37141 20.1487C8.37141 20.5577 8.45203 20.9626 8.60865 21.3405C8.76527 21.7183 8.99482 22.0615 9.28418 22.3506C9.57322 22.6399 9.91646 22.8695 10.2943 23.0261C10.6721 23.1827 11.0771 23.2633 11.4861 23.2633C11.8951 23.2633 12.3 23.1827 12.6779 23.0261C13.0557 22.8695 13.3989 22.6399 13.688 22.3506L19.1966 16.8419L22.3866 13.7297" stroke="#B9B9B9" stroke-miterlimit="10" stroke-linecap="round"/>
</svg>
