<svg width="48" height="48" viewBox="0 0 48 48" fill="none" xmlns="http://www.w3.org/2000/svg">
<path d="M23.98 12.647C17.904 12.647 12.98 17.571 12.98 23.647C12.98 29.722 17.904 34.647 23.98 34.647C30.055 34.647 34.98 29.722 34.98 23.647C34.98 17.571 30.055 12.647 23.98 12.647V12.647Z" stroke="black" stroke-width="4" stroke-linejoin="round"/>
<path d="M9.04 38.99L11.5 36.516" stroke="black" stroke-width="4" stroke-linecap="round"/>
<path d="M36.933 11.255L38.979 9.196" stroke="black" stroke-width="4" stroke-linecap="round"/>
<path d="M24 6.64697V3.64697" stroke="black" stroke-width="4" stroke-linecap="round"/>
<path d="M4 24.646H8" stroke="black" stroke-width="4" stroke-linecap="round"/>
<path d="M10.468 11.6639L8.00002 9.19594" stroke="black" stroke-width="4" stroke-linecap="round"/>
<path fill-rule="evenodd" clip-rule="evenodd" d="M23.98 30.646C24.8992 30.646 25.8095 30.4649 26.6588 30.1132C27.508 29.7614 28.2797 29.2458 28.9297 28.5957C29.5797 27.9457 30.0954 27.1741 30.4471 26.3248C30.7989 25.4755 30.98 24.5652 30.98 23.646C30.98 22.7267 30.7989 21.8165 30.4471 20.9672C30.0954 20.1179 29.5797 19.3463 28.9297 18.6962C28.2797 18.0462 27.508 17.5306 26.6588 17.1788C25.8095 16.8271 24.8992 16.646 23.98 16.646" fill="black"/>
<path d="M44 23.646H40" stroke="black" stroke-width="4" stroke-linecap="round"/>
<path d="M37.9561 38.99L35.9031 36.937" stroke="black" stroke-width="4" stroke-linecap="round"/>
<path d="M24 44.646V40.646" stroke="black" stroke-width="4" stroke-linecap="round"/>
</svg>
