<svg width="32" height="32" viewBox="0 0 32 32" fill="none" xmlns="http://www.w3.org/2000/svg">
<path d="M18.7055 9.10545C18.704 9.36854 18.7546 9.62931 18.8543 9.87278C18.954 10.1163 19.1008 10.3376 19.2863 10.5242C19.4718 10.7107 19.6924 10.8587 19.9353 10.9597C20.1783 11.0607 20.4388 11.1127 20.7018 11.1127H25.8073L18.7055 4V9.10545Z" fill="#646464" fill-opacity="0.3"/>
<path d="M18.2473 5.09091L24.7164 11.56V26.0036C24.7164 26.2438 24.621 26.4741 24.4512 26.6439C24.2814 26.8137 24.0511 26.9091 23.8109 26.9091H8.99636C8.87746 26.9091 8.75972 26.8857 8.64986 26.8402C8.54001 26.7947 8.44019 26.728 8.35611 26.6439C8.27203 26.5598 8.20534 26.46 8.15983 26.3501C8.11433 26.2403 8.09091 26.1225 8.09091 26.0036V5.99636C8.09091 5.87746 8.11433 5.75972 8.15983 5.64986C8.20534 5.54001 8.27203 5.44019 8.35611 5.35611C8.44019 5.27203 8.54001 5.20534 8.64986 5.15983C8.75972 5.11433 8.87746 5.09091 8.99636 5.09091H18.2473ZM18.7055 4H8.99636C8.46689 4 7.95911 4.21033 7.58472 4.58472C7.21033 4.95911 7 5.4669 7 5.99636V26.0036C7 26.5331 7.21033 27.0409 7.58472 27.4153C7.95911 27.7897 8.46689 28 8.99636 28H23.8109C24.3404 28 24.8482 27.7897 25.2226 27.4153C25.5969 27.0409 25.8073 26.5331 25.8073 26.0036V11.1127L18.7055 4Z" fill="#646464"/>
<path d="M19.7964 6.62909L23.1782 10.0218H20.7018C20.4607 10.0189 20.2304 9.92114 20.0609 9.7496C19.8914 9.57805 19.7964 9.34661 19.7964 9.10545V6.62909ZM18.7055 4V9.10545C18.704 9.36854 18.7546 9.62931 18.8543 9.87278C18.954 10.1163 19.1008 10.3376 19.2863 10.5242C19.4718 10.7107 19.6924 10.8587 19.9353 10.9597C20.1783 11.0607 20.4388 11.1127 20.7018 11.1127H25.8073L18.7055 4Z" fill="#646464"/>
<path d="M10.851 24.5091H21.76" stroke="#646464" stroke-miterlimit="10" stroke-linecap="round"/>
<path d="M16.4036 21.8363V13.1091" stroke="#646464" stroke-miterlimit="10" stroke-linecap="round"/>
<path d="M12.5527 16.0981L16.4036 12.2363L20.2654 16.0981" stroke="#646464" stroke-linecap="round" stroke-linejoin="round"/>
</svg>
