<svg width="32" height="32" viewBox="0 0 32 32" fill="none" xmlns="http://www.w3.org/2000/svg">
<path d="M26.516 14.0769L23.986 13.4615C23.8374 12.9821 23.6421 12.5184 23.403 12.0769L24.58 10.1209C24.6541 9.99685 24.6846 9.85164 24.6667 9.7083C24.6487 9.56496 24.5834 9.43172 24.481 9.3297L22.666 7.50553C22.5629 7.40492 22.4297 7.34079 22.2867 7.32293C22.1437 7.30507 21.9987 7.33447 21.874 7.40663L19.916 8.58245C19.4737 8.34738 19.0095 8.156 18.53 8.01102L17.914 5.48356C17.8776 5.34513 17.7963 5.22263 17.6829 5.13517C17.5695 5.04771 17.4303 5.0002 17.287 5.00005H14.713C14.5693 4.99828 14.4291 5.04507 14.3153 5.13283C14.2015 5.22059 14.1207 5.34418 14.086 5.48356L13.47 8.01102C12.9626 8.16576 12.4724 8.37197 12.007 8.62641L9.97204 7.40663C9.84732 7.33447 9.70239 7.30507 9.55938 7.32293C9.41637 7.34079 9.28314 7.40492 9.18004 7.50553L7.35404 9.3297C7.2534 9.43303 7.19011 9.56693 7.17418 9.71022C7.15824 9.85351 7.19057 9.99802 7.26604 10.1209L8.52004 12.2198C8.31954 12.6163 8.15036 13.0278 8.01404 13.4506L5.48405 14.0769C5.34548 14.1133 5.22286 14.1945 5.13531 14.3078C5.04776 14.4211 5.0002 14.5602 5.00005 14.7033V17.2747C4.99828 17.4183 5.04512 17.5583 5.13297 17.672C5.22081 17.7857 5.34453 17.8664 5.48405 17.9011L8.01404 18.5165C8.1683 19.0061 8.36713 19.4806 8.60804 19.934L7.50804 21.8022C7.43581 21.9268 7.40638 22.0715 7.42425 22.2144C7.44213 22.3573 7.50633 22.4904 7.60704 22.5934L9.40004 24.4066C9.50216 24.5088 9.63554 24.5741 9.77902 24.592C9.9225 24.6099 10.0679 24.5795 10.192 24.5055L12.062 23.4066C12.5146 23.639 12.9855 23.8338 13.47 23.989L14.086 26.5164C14.1207 26.6558 14.2015 26.7794 14.3153 26.8672C14.4291 26.9549 14.5693 27.0017 14.713 27H17.287C17.4303 26.9998 17.5695 26.9523 17.6829 26.8648C17.7963 26.7774 17.8776 26.6549 17.914 26.5164L18.53 23.989C19.0255 23.8351 19.5045 23.6327 19.96 23.3846L21.874 24.4835C21.9982 24.5575 22.1435 24.588 22.287 24.57C22.4305 24.5521 22.5639 24.4868 22.666 24.3846L24.481 22.5824C24.5834 22.4804 24.6487 22.3471 24.6667 22.2038C24.6846 22.0605 24.6541 21.9152 24.58 21.7912L23.425 19.8681C23.6552 19.4329 23.8431 18.9766 23.986 18.5055L26.516 17.8901C26.6546 17.8537 26.7772 17.7725 26.8647 17.6592C26.9523 17.5459 26.9999 17.4069 27 17.2637V14.7033C26.9999 14.5602 26.9523 14.4211 26.8647 14.3078C26.7772 14.1945 26.6546 14.1133 26.516 14.0769V14.0769ZM16 20.4945C15.108 20.4945 14.2361 20.2302 13.4944 19.7352C12.7527 19.2401 12.1747 18.5364 11.8333 17.7132C11.492 16.8899 11.4027 15.984 11.5767 15.11C11.7507 14.2361 12.1802 13.4333 12.811 12.8032C13.4417 12.1731 14.2453 11.744 15.1202 11.5701C15.995 11.3963 16.9018 11.4855 17.7259 11.8265C18.55 12.1675 19.2544 12.745 19.7499 13.4859C20.2455 14.2268 20.51 15.0979 20.51 15.989C20.5071 17.183 20.031 18.3273 19.1859 19.1717C18.3407 20.016 17.1953 20.4916 16 20.4945V20.4945Z" stroke="#646464" stroke-miterlimit="10"/>
</svg>
